<svg width="24" height="24" viewBox="0 0 24 24" fill="none" xmlns="http://www.w3.org/2000/svg">
<path d="M20.7011 11.1287C20.8926 11.322 21 11.583 21 11.8551C21 12.1272 20.8926 12.3882 20.7011 12.5815L13.8483 19.4343C13.7542 19.5353 13.6407 19.6163 13.5146 19.6725C13.3885 19.7287 13.2524 19.7589 13.1144 19.7613C12.9763 19.7637 12.8392 19.7384 12.7112 19.6867C12.5832 19.635 12.467 19.558 12.3694 19.4604C12.2718 19.3628 12.1948 19.2465 12.1431 19.1185C12.0914 18.9905 12.066 18.8534 12.0685 18.7154C12.0709 18.5774 12.1011 18.4413 12.1573 18.3152C12.2135 18.1891 12.2945 18.0756 12.3955 17.9815L15.7868 14.5901C16.4168 13.9602 15.9706 12.883 15.0797 12.883H3.52792C3.2553 12.883 2.99384 12.7747 2.80107 12.5819C2.6083 12.3892 2.5 12.1277 2.5 11.8551C2.5 11.5825 2.6083 11.321 2.80107 11.1282C2.99384 10.9355 3.2553 10.8272 3.52792 10.8272H15.0797C15.9706 10.8272 16.4168 9.75003 15.7868 9.12006L12.3955 5.72868C12.2139 5.53382 12.115 5.27609 12.1197 5.00979C12.1244 4.74349 12.2323 4.4894 12.4206 4.30107C12.609 4.11274 12.8631 4.00486 13.1294 4.00016C13.3957 3.99546 13.6534 4.09431 13.8483 4.27588L20.7011 11.1287Z" fill="white"/>
</svg>
