<svg width="24" height="24" viewBox="0 0 24 24" fill="none" xmlns="http://www.w3.org/2000/svg">
<path d="M19 6H17.414L16.414 5C15.835 4.421 14.819 4 14 4H10C9.181 4 8.165 4.421 7.586 5L6.586 6H5C3.346 6 2 7.346 2 9V17C2 18.654 3.346 20 5 20H19C20.654 20 22 18.654 22 17V9C22 7.346 20.654 6 19 6ZM12 16C11.0716 15.9999 10.1813 15.6309 9.52492 14.9744C8.86854 14.3178 8.49987 13.4274 8.5 12.499C8.50013 11.5706 8.86906 10.6803 9.52563 10.0239C10.1822 9.36754 11.0726 8.99887 12.001 8.999C12.9294 8.99913 13.8197 9.36806 14.4761 10.0246C15.1325 10.6812 15.5011 11.5716 15.501 12.5C15.5009 13.4284 15.1319 14.3187 14.4754 14.9751C13.8188 15.6315 12.9284 16.0001 12 16ZM18 11.299C17.8293 11.299 17.6602 11.2654 17.5025 11.2C17.3448 11.1347 17.2015 11.039 17.0808 10.9182C16.96 10.7975 16.8643 10.6542 16.799 10.4965C16.7336 10.3388 16.7 10.1697 16.7 9.999C16.7 9.82828 16.7336 9.65924 16.799 9.50151C16.8643 9.34379 16.96 9.20048 17.0808 9.07976C17.2015 8.95905 17.3448 8.86329 17.5025 8.79796C17.6602 8.73263 17.8293 8.699 18 8.699C18.3448 8.699 18.6754 8.83596 18.9192 9.07976C19.163 9.32356 19.3 9.65422 19.3 9.999C19.3 10.3438 19.163 10.6744 18.9192 10.9182C18.6754 11.162 18.3448 11.299 18 11.299Z" fill="#0E276A"/>
</svg>
