<svg width="36" height="36" viewBox="0 0 36 36" fill="none" xmlns="http://www.w3.org/2000/svg">
<path d="M32.355 18.99C32.145 18.39 31.575 18 30.9 18H20.115C19.425 18 18.87 18.39 18.645 18.99L16.5 25.155V33.42C16.5 33.99 16.98 34.5 17.55 34.5H18.48C19.05 34.5 19.5 33.93 19.5 33.36V31.5H31.5V33.36C31.5 33.93 31.965 34.5 32.535 34.5H33.45C34.02 34.5 34.5 33.99 34.5 33.42V25.155L32.355 18.99ZM20.115 19.5H30.9L32.445 24H18.57L20.115 19.5ZM19.5 28.5C18.675 28.5 18 27.825 18 27C18 26.175 18.675 25.5 19.5 25.5C20.325 25.5 21 26.175 21 27C21 27.825 20.325 28.5 19.5 28.5ZM31.5 28.5C30.675 28.5 30 27.825 30 27C30 26.175 30.675 25.5 31.5 25.5C32.325 25.5 33 26.175 33 27C33 27.825 32.325 28.5 31.5 28.5ZM9.99 21.795L10.5 25.5L8.925 27.09L6.285 22.32L1.5 19.665L3.09 18.045L6.84 18.6L12.645 12.795L1.5 6.92996L3.63 4.81496L17.415 7.99496L23.25 2.15996C24.09 1.28246 25.59 1.28246 26.43 2.15996C27.315 3.04496 27.315 4.49996 26.43 5.33996L20.595 11.175L21.825 16.5H20.115C18.81 16.5 17.685 17.25 17.25 18.465L17.205 18.555L15.84 15.945L9.99 21.795Z" fill="#1C1C1C"/>
</svg>
