<svg width="36" height="36" viewBox="0 0 36 36" fill="none" xmlns="http://www.w3.org/2000/svg">
<path d="M16.8 32.8125C15.05 32.4875 13.35 31.925 11.7 31.125C10.05 30.325 8.5815 29.2125 7.2945 27.7875C6.0075 26.3625 4.97 24.6 4.182 22.5C3.394 20.4 3 17.9 3 15V14.7C3 14.35 3.1125 14.0625 3.3375 13.8375C3.5625 13.6125 3.85 13.5 4.2 13.5H4.5C5.775 13.5 7.0875 13.6625 8.4375 13.9875C9.7875 14.3125 11.05 14.8 12.225 15.45C12.5 13.6 13.05 11.7 13.875 9.74995C14.7 7.79995 15.6875 6.03745 16.8375 4.46245C17.1375 4.03745 17.525 3.82495 18 3.82495C18.475 3.82495 18.8625 4.03745 19.1625 4.46245C20.3125 6.03745 21.3 7.79995 22.125 9.74995C22.95 11.7 23.5 13.6 23.775 15.45C24.95 14.8 26.2125 14.3125 27.5625 13.9875C28.9125 13.6625 30.225 13.5 31.5 13.5H31.65C32.025 13.5 32.344 13.6315 32.607 13.8945C32.87 14.1575 33.001 14.476 33 14.85V15C33 17.9 32.606 20.4 31.818 22.5C31.03 24.6 29.9925 26.3625 28.7055 27.7875C27.4185 29.2125 25.95 30.325 24.3 31.125C22.65 31.925 20.95 32.4875 19.2 32.8125C18.875 32.8625 18.475 32.8875 18 32.8875C17.525 32.8875 17.125 32.8625 16.8 32.8125ZM17.925 29.925C17.65 25.8 16.406 22.669 14.193 20.532C11.98 18.395 9.274 17.076 6.075 16.575C6.025 16.575 6.025 16.575 6.075 16.575C6.35 20.8 7.6315 23.975 9.9195 26.1C12.2075 28.225 14.876 29.5 17.925 29.925C17.975 29.95 17.975 29.9565 17.925 29.9445C17.875 29.9325 17.875 29.926 17.925 29.925ZM15.075 17.175C15.575 17.6 16.1 18.1065 16.65 18.6945C17.2 19.2825 17.65 19.851 18 20.4C18.375 19.85 18.8315 19.2815 19.3695 18.6945C19.9075 18.1075 20.426 17.601 20.925 17.175C20.875 15.75 20.594 14.2625 20.082 12.7125C19.57 11.1625 18.876 9.64995 18 8.17495C17.125 9.64995 16.431 11.1625 15.918 12.7125C15.405 14.2625 15.124 15.75 15.075 17.175ZM19.65 23.55C19.95 24.35 20.2065 25.225 20.4195 26.175C20.6325 27.125 20.801 28.15 20.925 29.25C21.825 28.95 22.775 28.5 23.775 27.9C24.775 27.3 25.7 26.5 26.55 25.5C27.4 24.5 28.1375 23.269 28.7625 21.807C29.3875 20.345 29.775 18.601 29.925 16.575C29.925 16.525 29.925 16.525 29.925 16.575C27.575 16.925 25.5125 17.7065 23.7375 18.9195C21.9625 20.1325 20.6 21.676 19.65 23.55Z" fill="#1C1C1C"/>
</svg>
