<svg width="36" height="36" viewBox="0 0 36 36" fill="none" xmlns="http://www.w3.org/2000/svg">
<path d="M16.5 33C16.075 33 15.719 32.856 15.432 32.568C15.145 32.28 15.001 31.924 15 31.5C14.999 31.076 15.143 30.72 15.432 30.432C15.721 30.144 16.077 30 16.5 30H33C33.425 30 33.7815 30.144 34.0695 30.432C34.3575 30.72 34.501 31.076 34.5 31.5C34.499 31.924 34.355 32.2805 34.068 32.5695C33.781 32.8585 33.425 33.002 33 33H16.5ZM16.5 28.5C16.5 26.475 17.1375 24.7065 18.4125 23.1945C19.6875 21.6825 21.3 20.751 23.25 20.4V19.4625C23.25 19.0375 23.394 18.6815 23.682 18.3945C23.97 18.1075 24.326 17.9635 24.75 17.9625C25.174 17.9615 25.5305 18.1055 25.8195 18.3945C26.1085 18.6835 26.252 19.0395 26.25 19.4625V20.4C28.175 20.75 29.7815 21.6815 31.0695 23.1945C32.3575 24.7075 33.001 26.476 33 28.5H16.5ZM20.4375 25.4625H28.9875C28.5125 24.7875 27.906 24.2435 27.168 23.8305C26.43 23.4175 25.624 23.2115 24.75 23.2125C23.85 23.2125 23.025 23.419 22.275 23.832C21.525 24.245 20.9125 24.7885 20.4375 25.4625ZM1.5 16.5V6.00005C1.5 5.17505 1.794 4.46905 2.382 3.88205C2.97 3.29505 3.676 3.00105 4.5 3.00005H7.5C8.1 3.00005 8.7 3.21255 9.3 3.63755C9.9 4.06255 10.3 4.57505 10.5 5.17505L20.1375 2.47505C20.4125 2.40005 20.7 2.36255 21 2.36255C21.3 2.36255 21.5875 2.41255 21.8625 2.51255L31.95 5.66255C32.275 5.76255 32.5315 5.94405 32.7195 6.20705C32.9075 6.47005 33.001 6.76355 33 7.08755V7.50005C33 8.75005 32.5625 9.81255 31.6875 10.6875C30.8125 11.5625 29.75 12 28.5 12H25.5V12.9C25.5 13.525 25.3185 14.094 24.9555 14.607C24.5925 15.12 24.124 15.4885 23.55 15.7125L13.95 19.3125C13.775 19.3625 13.6065 19.4065 13.4445 19.4445C13.2825 19.4825 13.101 19.501 12.9 19.5H4.5C3.675 19.5 2.969 19.2065 2.382 18.6195C1.795 18.0325 1.501 17.326 1.5 16.5ZM4.5 11.25V16.5H7.5V6.00005H4.5V11.25ZM10.5 12.375V16.5H12.9L21.6 13.3125C21.875 13.2125 22.094 13.044 22.257 12.807C22.42 12.57 22.501 12.301 22.5 12H19.8375L16.875 12.975C16.475 13.1 16.0935 13.069 15.7305 12.882C15.3675 12.695 15.124 12.3885 15 11.9625C14.875 11.5625 14.9 11.1875 15.075 10.8375C15.25 10.4875 15.5375 10.25 15.9375 10.125L19.2375 9.00005H28.5C28.725 9.00005 29.0065 8.91905 29.3445 8.75705C29.6825 8.59505 29.851 8.40105 29.85 8.17505L20.925 5.40005L10.5 8.25005V12.375Z" fill="#1C1C1C"/>
</svg>
