<svg width="36" height="36" viewBox="0 0 36 36" fill="none" xmlns="http://www.w3.org/2000/svg">
<g clip-path="url(#clip0_138_355)">
<path d="M9.525 23.025L6.375 19.8C7.925 18.25 9.7 17.0625 11.7 16.2375C13.7 15.4125 15.8 15 18 15C20.2 15 22.3065 15.419 24.3195 16.257C26.3325 17.095 28.101 18.301 29.625 19.875L26.475 23.025C25.35 21.9 24.056 21.0315 22.593 20.4195C21.13 19.8075 19.599 19.501 18 19.5C16.401 19.499 14.87 19.8055 13.407 20.4195C11.944 21.0335 10.65 21.902 9.525 23.025ZM3.15 16.65L0 13.5C2.375 11.075 5.119 9.2185 8.232 7.9305C11.345 6.6425 14.601 5.999 18 6C21.399 6.001 24.6555 6.645 27.7695 7.932C30.8835 9.219 33.627 11.075 36 13.5L32.85 16.65C30.875 14.675 28.606 13.1565 26.043 12.0945C23.48 11.0325 20.799 10.501 18 10.5C15.201 10.499 12.5195 11.0305 9.9555 12.0945C7.3915 13.1585 5.123 14.677 3.15 16.65ZM18 31.5L12.7125 26.175C13.4125 25.475 14.219 24.9375 15.132 24.5625C16.045 24.1875 17.001 24 18 24C18.999 24 19.9555 24.1875 20.8695 24.5625C21.7835 24.9375 22.5895 25.475 23.2875 26.175L18 31.5Z" fill="#1C1C1C"/>
</g>
<defs>
<clipPath id="clip0_138_355">
<rect width="36" height="36" fill="white"/>
</clipPath>
</defs>
</svg>
