<svg width="36" height="36" viewBox="0 0 36 36" fill="none" xmlns="http://www.w3.org/2000/svg">
<path d="M12.1501 20.0101L16.3951 15.7651L5.86509 5.25006C4.7421 6.37741 4.11157 7.90382 4.11157 9.49506C4.11157 11.0863 4.7421 12.6127 5.86509 13.7401L12.1501 20.0101ZM22.3201 17.2951C24.6151 18.3601 27.8401 17.6101 30.2251 15.2251C33.0901 12.3601 33.6451 8.25006 31.4401 6.04506C29.2501 3.85506 25.1401 4.39506 22.2601 7.26006C19.8751 9.64506 19.1251 12.8701 20.1901 15.1651L5.55009 29.8051L7.66509 31.9201L18.0001 21.6151L28.3201 31.9351L30.4351 29.8201L20.1151 19.5001L22.3201 17.2951Z" fill="#1C1C1C"/>
</svg>
