<svg width="36" height="36" viewBox="0 0 36 36" fill="none" xmlns="http://www.w3.org/2000/svg">
<path d="M15 9C15 7.4087 14.3679 5.88258 13.2426 4.75736C12.1174 3.63214 10.5913 3 9 3C7.4087 3 5.88258 3.63214 4.75736 4.75736C3.63214 5.88258 3 7.4087 3 9C3 10.5913 3.63214 12.1174 4.75736 13.2426C5.88258 14.3679 7.4087 15 9 15C10.5913 15 12.1174 14.3679 13.2426 13.2426C14.3679 12.1174 15 10.5913 15 9ZM17.775 11C16.8687 15.0062 13.2812 18 9 18C4.03125 18 0 13.9688 0 9C0 4.03125 4.03125 0 9 0C13.2812 0 16.8687 2.99375 17.775 7H22.2625C22.8125 6.3875 23.6125 6 24.5 6H31C32.6562 6 34 7.34375 34 9C34 10.6562 32.6562 12 31 12H24.5C23.6125 12 22.8125 11.6125 22.2625 11H17.775ZM9 5C10.0609 5 11.0783 5.42143 11.8284 6.17157C12.5786 6.92172 13 7.93913 13 9C13 10.0609 12.5786 11.0783 11.8284 11.8284C11.0783 12.5786 10.0609 13 9 13C7.93913 13 6.92172 12.5786 6.17157 11.8284C5.42143 11.0783 5 10.0609 5 9C5 7.93913 5.42143 6.92172 6.17157 6.17157C6.92172 5.42143 7.93913 5 9 5ZM25 15C25.8313 15 26.5 15.6687 26.5 16.5V17H32.5C33.3313 17 34 17.6687 34 18.5C34 19.3313 33.3313 20 32.5 20H17.5C16.6687 20 16 19.3313 16 18.5C16 17.6687 16.6687 17 17.5 17H23.5V16.5C23.5 15.6687 24.1687 15 25 15ZM18 29V22H32V29C32 30.6562 30.6562 32 29 32H21C19.3438 32 18 30.6562 18 29ZM3 20H11C12.6562 20 14 21.3438 14 23C14 24.6562 12.6562 26 11 26H10C10 27.1063 9.10625 28 8 28H4C2.89375 28 2 27.1063 2 26V21C2 20.45 2.45 20 3 20ZM11 24C11.55 24 12 23.55 12 23C12 22.45 11.55 22 11 22H10V24H11ZM1.5 29H12.5C13.3313 29 14 29.6687 14 30.5C14 31.3313 13.3313 32 12.5 32H1.5C0.66875 32 0 31.3313 0 30.5C0 29.6687 0.66875 29 1.5 29Z" fill="#1C1C1C"/>
</svg>
