<svg width="18" height="18" viewBox="0 0 18 18" fill="none" xmlns="http://www.w3.org/2000/svg">
<g clip-path="url(#clip0_149_2571)">
<path fill-rule="evenodd" clip-rule="evenodd" d="M10.335 0.883142C11.3243 0.639392 12.3949 1.00127 12.9398 1.93239C13.0796 2.17164 13.233 2.45064 13.3954 2.77164C12.2561 2.69627 10.566 2.62502 8.25 2.62502C6.9435 2.62502 5.8365 2.64752 4.91475 2.68127C6.648 1.95752 8.53387 1.32639 10.335 0.883142ZM3.02138 17.2834C4.13775 17.3606 5.85187 17.4375 8.25 17.4375C10.6481 17.4375 12.3623 17.3606 13.4786 17.2834C14.7079 17.1983 15.6776 16.2645 15.7785 15.0251C15.798 14.7884 15.8168 14.5245 15.8348 14.2335C15.4864 14.2436 15.0844 14.25 14.625 14.25C13.9972 14.25 13.476 14.238 13.0538 14.2211C11.6891 14.1664 10.5874 13.1213 10.5251 11.721C10.5101 11.3786 10.5 10.9733 10.5 10.5C10.5 10.0268 10.5101 9.62139 10.5251 9.27902C10.5874 7.87877 11.6891 6.83402 13.0538 6.77889C13.5773 6.75881 14.1011 6.74919 14.625 6.75002C15.0844 6.75002 15.4864 6.75639 15.8348 6.76652C15.8168 6.47527 15.798 6.21152 15.7785 5.97527C15.6776 4.73552 14.7079 3.80177 13.4786 3.71664C12.3623 3.63939 10.6481 3.56252 8.25 3.56252C5.85187 3.56252 4.13775 3.63939 3.02138 3.71664C1.79212 3.80177 0.822375 4.73552 0.7215 5.97489C0.63975 6.97914 0.5625 8.46564 0.5625 10.5C0.5625 12.5344 0.63975 14.0213 0.7215 15.0251C0.822375 16.2645 1.79212 17.1983 3.02138 17.2834ZM11.649 11.6711C11.6846 12.4699 12.3004 13.065 13.0988 13.0969C13.5056 13.1134 14.0115 13.125 14.625 13.125C15.2385 13.125 15.7444 13.1134 16.1512 13.0969C16.95 13.065 17.5654 12.4699 17.601 11.6711C17.6152 11.346 17.625 10.9571 17.625 10.5C17.625 10.0429 17.6152 9.65402 17.601 9.32889C17.5654 8.53014 16.9496 7.93502 16.1512 7.90314C15.6427 7.88362 15.1339 7.87424 14.625 7.87502C14.0115 7.87502 13.5056 7.88664 13.0988 7.90314C12.3 7.93502 11.6846 8.53014 11.649 9.32889C11.6347 9.65402 11.625 10.0425 11.625 10.5C11.625 10.9575 11.6347 11.346 11.649 11.6711ZM14.25 9.56252C14.3992 9.56252 14.5423 9.62178 14.6477 9.72727C14.7532 9.83276 14.8125 9.97583 14.8125 10.125V10.875C14.8125 11.0242 14.7532 11.1673 14.6477 11.2728C14.5423 11.3783 14.3992 11.4375 14.25 11.4375C14.1008 11.4375 13.9577 11.3783 13.8523 11.2728C13.7468 11.1673 13.6875 11.0242 13.6875 10.875V10.125C13.6875 9.97583 13.7468 9.83276 13.8523 9.72727C13.9577 9.62178 14.1008 9.56252 14.25 9.56252Z" fill="white"/>
</g>
<defs>
<clipPath id="clip0_149_2571">
<rect width="18" height="18" fill="white"/>
</clipPath>
</defs>
</svg>
