<svg width="18" height="18" viewBox="0 0 18 18" fill="none" xmlns="http://www.w3.org/2000/svg">
<path d="M11.8874 6.105C12.1799 6.105 12.4649 6.1275 12.7424 6.165C12.2324 3.9375 9.89243 2.25 7.07993 2.25C3.89243 2.25 1.30493 4.41 1.30493 7.0725C1.30493 8.61 2.16743 9.9675 3.50993 10.8525L2.75243 12.375L4.82243 11.4825C5.26493 11.64 5.72993 11.7675 6.22493 11.835C6.15743 11.5425 6.11993 11.2425 6.11993 10.9275C6.11243 8.2725 8.69993 6.105 11.8874 6.105ZM8.99993 4.4175C9.09448 4.4175 9.18811 4.43612 9.27546 4.47231C9.36282 4.50849 9.44219 4.56152 9.50905 4.62838C9.57591 4.69524 9.62894 4.77461 9.66512 4.86197C9.70131 4.94932 9.71993 5.04295 9.71993 5.1375C9.71993 5.23205 9.70131 5.32568 9.66512 5.41303C9.62894 5.50039 9.57591 5.57976 9.50905 5.64662C9.44219 5.71347 9.36282 5.76651 9.27546 5.80269C9.18811 5.83888 9.09448 5.8575 8.99993 5.8575C8.80898 5.8575 8.62584 5.78164 8.49082 5.64662C8.35579 5.51159 8.27993 5.32846 8.27993 5.1375C8.27993 4.94654 8.35579 4.76341 8.49082 4.62838C8.62584 4.49336 8.80898 4.4175 8.99993 4.4175ZM5.15243 5.865C4.96148 5.865 4.77834 5.78914 4.64331 5.65412C4.50829 5.51909 4.43243 5.33596 4.43243 5.145C4.43243 4.95404 4.50829 4.77091 4.64331 4.63588C4.77834 4.50086 4.96148 4.425 5.15243 4.425C5.34339 4.425 5.52652 4.50086 5.66155 4.63588C5.79657 4.77091 5.87243 4.95404 5.87243 5.145C5.87243 5.33596 5.79657 5.51909 5.66155 5.65412C5.52652 5.78914 5.34339 5.865 5.15243 5.865Z" fill="white"/>
<path d="M16.695 10.9275C16.695 8.79751 14.5425 7.07251 11.8875 7.07251C9.23246 7.07251 7.07996 8.79751 7.07996 10.9275C7.07996 13.0575 9.23246 14.7825 11.8875 14.7825C12.3225 14.7825 12.7425 14.7225 13.14 14.6325L15.735 15.75L14.835 13.95C15.96 13.245 16.695 12.165 16.695 10.9275ZM10.44 10.6875C10.2976 10.6875 10.1583 10.6453 10.0399 10.5662C9.92154 10.4871 9.82926 10.3746 9.77476 10.243C9.72027 10.1115 9.70601 9.96671 9.73379 9.82704C9.76157 9.68738 9.83015 9.55909 9.93084 9.45839C10.0315 9.3577 10.1598 9.28913 10.2995 9.26134C10.4392 9.23356 10.5839 9.24782 10.7155 9.30232C10.8471 9.35681 10.9595 9.4491 11.0386 9.5675C11.1177 9.6859 11.16 9.82511 11.16 9.96751C11.1675 10.365 10.8375 10.6875 10.44 10.6875ZM13.3275 10.6875C13.1365 10.6875 12.9534 10.6117 12.8183 10.4766C12.6833 10.3416 12.6075 10.1585 12.6075 9.96751C12.6075 9.77655 12.6833 9.59342 12.8183 9.45839C12.9534 9.32337 13.1365 9.24751 13.3275 9.24751C13.5184 9.24751 13.7015 9.32337 13.8366 9.45839C13.9716 9.59342 14.0475 9.77655 14.0475 9.96751C14.0475 10.1585 13.9716 10.3416 13.8366 10.4766C13.7015 10.6117 13.5184 10.6875 13.3275 10.6875Z" fill="white"/>
</svg>
