<svg width="20" height="20" viewBox="0 0 20 20" fill="none" xmlns="http://www.w3.org/2000/svg">
<path d="M10 14.3958L6.54167 16.4791C6.38889 16.5763 6.22917 16.618 6.0625 16.6041C5.89583 16.5902 5.75 16.5347 5.625 16.4375C5.5 16.3402 5.40278 16.2188 5.33333 16.0733C5.26389 15.9277 5.25 15.7644 5.29167 15.5833L6.20833 11.6458L3.14583 8.99996C3.00694 8.87496 2.92028 8.73246 2.88583 8.57246C2.85139 8.41246 2.86167 8.25635 2.91667 8.10413C2.97167 7.9519 3.055 7.8269 3.16667 7.72913C3.27833 7.63135 3.43111 7.56885 3.625 7.54163L7.66667 7.18746L9.22917 3.47913C9.29861 3.31246 9.40639 3.18746 9.5525 3.10413C9.69861 3.02079 9.84778 2.97913 10 2.97913C10.1522 2.97913 10.3014 3.02079 10.4475 3.10413C10.5936 3.18746 10.7014 3.31246 10.7708 3.47913L12.3333 7.18746L16.375 7.54163C16.5694 7.5694 16.7222 7.6319 16.8333 7.72913C16.9444 7.82635 17.0278 7.95135 17.0833 8.10413C17.1389 8.2569 17.1494 8.41329 17.115 8.57329C17.0806 8.73329 16.9936 8.87552 16.8542 8.99996L13.7917 11.6458L14.7083 15.5833C14.75 15.7638 14.7361 15.9272 14.6667 16.0733C14.5972 16.2194 14.5 16.3408 14.375 16.4375C14.25 16.5341 14.1042 16.5897 13.9375 16.6041C13.7708 16.6186 13.6111 16.5769 13.4583 16.4791L10 14.3958Z" fill="#BA8559"/>
</svg>
