<svg width="24" height="24" viewBox="0 0 24 24" fill="none" xmlns="http://www.w3.org/2000/svg">
<path d="M7.55556 8.58824H16.4444M7.55556 13.0588H14.2222M18.6667 3C19.5507 3 20.3986 3.35326 21.0237 3.98205C21.6488 4.61085 22 5.46369 22 6.35294V15.2941C22 16.1834 21.6488 17.0362 21.0237 17.665C20.3986 18.2938 19.5507 18.6471 18.6667 18.6471H13.1111L7.55556 22V18.6471H5.33333C4.44928 18.6471 3.60143 18.2938 2.97631 17.665C2.35119 17.0362 2 16.1834 2 15.2941V6.35294C2 5.46369 2.35119 4.61085 2.97631 3.98205C3.60143 3.35326 4.44928 3 5.33333 3H18.6667Z" stroke="#1C1C1C" stroke-width="2" stroke-linecap="round" stroke-linejoin="round"/>
</svg>
